<svg width="1280" height="640" viewBox="0 0 1280 640" xmlns="http://www.w3.org/2000/svg">
  <defs>
    <linearGradient id="bg" x1="0" y1="0" x2="0" y2="1">
      <stop offset="0" stop-color="#0a1622"/>
      <stop offset="1" stop-color="#0f2637"/>
    </linearGradient>
  </defs>
  <rect width="1280" height="640" fill="url(#bg)"/>

  <!-- canoe + outrigger, top view: the finalized geometry -->
  <g transform="translate(560,60) scale(0.9)">
    <path d="M 116 74
             C 180 52, 260 44, 375 44
             L 435 44
             C 550 44, 630 52, 694 74
             Q 706 80, 694 86
             C 630 108, 550 116, 435 116
             L 375 116
             C 260 116, 180 108, 116 86
             Q 104 80, 116 74 Z"
          fill="#132a3e" stroke="#46d3c2" stroke-width="5"/>
    <g stroke="#46d3c2" stroke-width="5">
      <line x1="340" y1="117" x2="340" y2="220"/>
      <line x1="460" y1="117" x2="460" y2="220"/>
    </g>
    <path d="M 250 229
             C 285 222, 320 220, 370 220
             L 420 220
             C 470 220, 505 222, 540 229
             Q 548 236, 540 243
             C 505 250, 470 252, 420 252
             L 370 252
             C 320 252, 285 250, 250 243
             Q 242 236, 250 229 Z"
          fill="#132a3e" stroke="#7ee2d4" stroke-width="5"/>
  </g>

  <!-- wave line -->
  <path d="M 80 536 q 40 -18 80 0 t 80 0 t 80 0 t 80 0 t 80 0 t 80 0 t 80 0 t 80 0 t 80 0 t 80 0 t 80 0 t 80 0 t 80 0 t 80 0"
        stroke="#1c3a52" stroke-width="4" fill="none"/>

  <!-- wordmark + tagline -->
  <text x="96" y="392" font-family="Menlo, monospace" font-size="104" font-weight="bold" fill="#f2f7fa">outrigger</text>
  <text x="100" y="452" font-family="Menlo, monospace" font-size="31" fill="#9fb3c8">The machinery that lets</text>
  <text x="100" y="496" font-family="Menlo, monospace" font-size="31" fill="#9fb3c8">coding agents go the distance.</text>

  <!-- footer -->
  <text x="100" y="586" font-family="Menlo, monospace" font-size="21" fill="#48657e">long-horizon coding agents · blind held-out grading · evidence-gated machinery</text>
</svg>
