<svg width="960" height="700" viewBox="0 0 960 700" xmlns="http://www.w3.org/2000/svg" font-family="Menlo, Consolas, monospace">
  <defs>
    <marker id="arr" viewBox="0 0 10 10" refX="9" refY="5" markerWidth="7" markerHeight="7" orient="auto-start-reverse">
      <path d="M 0 0 L 10 5 L 0 10 z" fill="#46d3c2"/>
    </marker>
  </defs>
  <rect width="960" height="700" rx="16" fill="#0d1f2f"/>

  <!-- ratified spec -->
  <rect x="40" y="48" width="190" height="58" rx="10" fill="#132a3e" stroke="#9fb3c8" stroke-width="2"/>
  <text x="135" y="83" font-size="18" fill="#f2f7fa" text-anchor="middle" font-weight="bold">ratified spec</text>

  <!-- blind test-author -->
  <rect x="310" y="36" width="250" height="82" rx="10" fill="#132a3e" stroke="#46d3c2" stroke-width="2"/>
  <text x="435" y="68" font-size="18" fill="#f2f7fa" text-anchor="middle" font-weight="bold">blind test-author</text>
  <text x="435" y="92" font-size="14" fill="#9fb3c8" text-anchor="middle">fresh worker &#183; sees spec only</text>

  <!-- sealed suite -->
  <rect x="650" y="30" width="270" height="94" rx="10" fill="#10314a" stroke="#7ee2d4" stroke-width="3"/>
  <text x="785" y="60" font-size="18" fill="#f2f7fa" text-anchor="middle" font-weight="bold">sealed held-out suite</text>
  <text x="785" y="84" font-size="14" fill="#9fb3c8" text-anchor="middle">proven to fail on the base code</text>
  <text x="785" y="104" font-size="14" fill="#9fb3c8" text-anchor="middle">tamper-evident manifest</text>

  <!-- top arrows -->
  <line x1="230" y1="77" x2="302" y2="77" stroke="#46d3c2" stroke-width="2.5" marker-end="url(#arr)"/>
  <line x1="560" y1="77" x2="642" y2="77" stroke="#46d3c2" stroke-width="2.5" marker-end="url(#arr)"/>

  <!-- spec down to implementer -->
  <path d="M 135 106 L 135 240" stroke="#46d3c2" stroke-width="2.5" fill="none" marker-end="url(#arr)"/>

  <!-- THE WALL -->
  <g stroke="#e0b458" stroke-width="5">
    <line x1="600" y1="160" x2="600" y2="392"/>
    <line x1="614" y1="160" x2="614" y2="392"/>
  </g>
  <text x="632" y="238" font-size="16" fill="#e0b458" font-weight="bold">OS-enforced wall</text>
  <text x="632" y="262" font-size="14" fill="#c9a04e">the implementer cannot read</text>
  <text x="632" y="282" font-size="14" fill="#c9a04e">the suite: denied by sandbox,</text>
  <text x="632" y="302" font-size="14" fill="#c9a04e">not by politeness</text>

  <!-- implementer -->
  <rect x="40" y="248" width="300" height="96" rx="10" fill="#132a3e" stroke="#46d3c2" stroke-width="2"/>
  <text x="190" y="280" font-size="18" fill="#f2f7fa" text-anchor="middle" font-weight="bold">implementer</text>
  <text x="190" y="304" font-size="14" fill="#9fb3c8" text-anchor="middle">commits in a walled worktree</text>
  <text x="190" y="324" font-size="14" fill="#9fb3c8" text-anchor="middle">own tests, own judgment</text>

  <!-- suite down to gate (legitimate: the gate holds the suite) -->
  <path d="M 785 124 L 785 420 L 745 420" stroke="#7ee2d4" stroke-width="2.5" fill="none" marker-end="url(#arr)"/>

  <!-- implementer down to gate -->
  <path d="M 190 344 L 190 444 L 232 444" stroke="#46d3c2" stroke-width="2.5" fill="none" marker-end="url(#arr)"/>

  <!-- merge-gate -->
  <rect x="240" y="396" width="500" height="96" rx="10" fill="#10314a" stroke="#46d3c2" stroke-width="3"/>
  <text x="490" y="428" font-size="18" fill="#f2f7fa" text-anchor="middle" font-weight="bold">merge-gate: judges the MERGED tree</text>
  <text x="490" y="452" font-size="14" fill="#9fb3c8" text-anchor="middle">task checks + the sealed suite, in a clean worktree</text>
  <text x="490" y="472" font-size="14" fill="#9fb3c8" text-anchor="middle">the implementer only learns test-failure counts</text>

  <!-- landing -->
  <line x1="490" y1="492" x2="490" y2="524" stroke="#46d3c2" stroke-width="2.5" marker-end="url(#arr)"/>
  <rect x="240" y="528" width="500" height="52" rx="10" fill="#132a3e" stroke="#9fb3c8" stroke-width="2"/>
  <text x="490" y="560" font-size="16" fill="#f2f7fa" text-anchor="middle">fast-forward landing, pinned to the judged commit</text>

  <!-- closure -->
  <line x1="490" y1="580" x2="490" y2="612" stroke="#46d3c2" stroke-width="2.5" marker-end="url(#arr)"/>
  <rect x="140" y="616" width="700" height="64" rx="10" fill="#10314a" stroke="#7ee2d4" stroke-width="3"/>
  <text x="490" y="642" font-size="16" fill="#f2f7fa" text-anchor="middle" font-weight="bold">whole-build closure: every check + every sealed suite, re-run on final main</text>
  <text x="490" y="666" font-size="14" fill="#9fb3c8" text-anchor="middle">completion is GRANTED and stamped, never self-declared</text>
</svg>
