<svg width="960" height="360" viewBox="0 0 960 360" xmlns="http://www.w3.org/2000/svg" font-family="Menlo, Consolas, monospace">
  <rect width="960" height="360" rx="16" fill="#0d1f2f"/>

  <!-- canoe hull, top view: full-bodied midsection, smooth pointed ends -->
  <path d="M 110 80
           C 150 66, 200 44, 290 42
           L 520 42
           C 610 44, 660 66, 700 80
           C 660 94, 610 116, 520 118
           L 290 118
           C 200 116, 150 94, 110 80 Z"
        fill="#132a3e" stroke="#46d3c2" stroke-width="3"/>
  <!-- gunwale: the inner rim that makes it read as an open canoe -->
  <path d="M 138 80
           C 170 70, 215 54, 295 52
           L 515 52
           C 595 54, 640 70, 672 80
           C 640 90, 595 106, 515 108
           L 295 108
           C 215 106, 170 90, 138 80 Z"
        fill="none" stroke="#2a4a63" stroke-width="2"/>
  <text x="405" y="74" font-size="21" fill="#f2f7fa" text-anchor="middle" font-weight="bold">your coding agent</text>
  <text x="405" y="100" font-size="14" fill="#9fb3c8" text-anchor="middle">does the work &#183; any vendor &#183; replaceable</text>

  <!-- crossbeam lashings -->
  <g stroke="#46d3c2" stroke-width="4">
    <line x1="340" y1="118" x2="340" y2="222"/>
    <line x1="460" y1="118" x2="460" y2="222"/>
  </g>
  <text x="580" y="168" font-size="14" fill="#5b7893">lashings: schema'd file contracts</text>
  <text x="580" y="188" font-size="14" fill="#5b7893">+ exit codes, never shared memory</text>

  <!-- outrigger float, top view: shorter, much slimmer, same family -->
  <path d="M 245 236
           C 270 227, 300 221, 340 220
           L 450 220
           C 490 221, 520 227, 545 236
           C 520 245, 490 251, 450 252
           L 340 252
           C 300 251, 270 245, 245 236 Z"
        fill="#132a3e" stroke="#7ee2d4" stroke-width="3"/>
  <text x="395" y="286" font-size="20" fill="#f2f7fa" text-anchor="middle" font-weight="bold">outrigger</text>
  <text x="395" y="310" font-size="14" fill="#9fb3c8" text-anchor="middle">spec &#183; walls &#183; blind grading &#183; evidence ledger</text>

  <text x="595" y="230" font-size="14" fill="#5b7893">keeps it upright when</text>
  <text x="595" y="250" font-size="14" fill="#5b7893">no one is watching</text>

  <path d="M 40 336 q 30 -12 60 0 t 60 0 t 60 0 t 60 0 t 60 0 t 60 0 t 60 0 t 60 0 t 60 0 t 60 0 t 60 0 t 60 0 t 60 0 t 60 0" stroke="#1c3a52" stroke-width="3" fill="none"/>
</svg>
