<svg width="960" height="360" viewBox="0 0 960 360" xmlns="http://www.w3.org/2000/svg" font-family="Menlo, Consolas, monospace">
  <rect width="960" height="360" rx="16" fill="#0d1f2f"/>

  <!-- canoe hull: pointed bow and stern -->
  <path d="M 120 84 Q 405 -20 690 84 Q 405 188 120 84 Z" fill="#132a3e" stroke="#46d3c2" stroke-width="3"/>
  <text x="405" y="76" font-size="22" fill="#f2f7fa" text-anchor="middle" font-weight="bold">your coding agent</text>
  <text x="405" y="103" font-size="14" fill="#9fb3c8" text-anchor="middle">does the work &#183; any vendor &#183; replaceable</text>

  <!-- crossbeam lashings -->
  <g stroke="#46d3c2" stroke-width="3">
    <line x1="310" y1="128" x2="310" y2="212"/>
    <line x1="470" y1="131" x2="470" y2="215"/>
  </g>
  <text x="555" y="168" font-size="14" fill="#5b7893">lashings: schema'd file contracts</text>
  <text x="555" y="188" font-size="14" fill="#5b7893">+ exit codes, never shared memory</text>

  <!-- outrigger float: shorter, slimmer, pointed -->
  <path d="M 250 232 Q 390 180 530 232 Q 390 284 250 232 Z" fill="#132a3e" stroke="#7ee2d4" stroke-width="3"/>
  <text x="390" y="240" font-size="20" fill="#f2f7fa" text-anchor="middle" font-weight="bold">outrigger</text>
  <text x="390" y="296" font-size="14" fill="#9fb3c8" text-anchor="middle">spec &#183; walls &#183; blind grading &#183; evidence ledger</text>

  <text x="575" y="230" font-size="14" fill="#5b7893">keeps it upright when</text>
  <text x="575" y="250" font-size="14" fill="#5b7893">no one is watching</text>

  <path d="M 40 336 q 30 -12 60 0 t 60 0 t 60 0 t 60 0 t 60 0 t 60 0 t 60 0 t 60 0 t 60 0 t 60 0 t 60 0 t 60 0 t 60 0 t 60 0" stroke="#1c3a52" stroke-width="3" fill="none"/>
</svg>
