<svg width="960" height="360" viewBox="0 0 960 360" xmlns="http://www.w3.org/2000/svg" font-family="Menlo, Consolas, monospace">
  <rect width="960" height="360" rx="16" fill="#0d1f2f"/>

  <!-- canoe hull, top view: fair continuous curves, short flat, blunted noses -->
  <path d="M 116 74
           C 180 52, 260 44, 375 44
           L 435 44
           C 550 44, 630 52, 694 74
           Q 706 80, 694 86
           C 630 108, 550 116, 435 116
           L 375 116
           C 260 116, 180 108, 116 86
           Q 104 80, 116 74 Z"
        fill="#132a3e" stroke="#46d3c2" stroke-width="3"/>
  <text x="405" y="74" font-size="21" fill="#f2f7fa" text-anchor="middle" font-weight="bold">your coding agent</text>
  <text x="405" y="100" font-size="14" fill="#9fb3c8" text-anchor="middle">does the work &#183; any vendor &#183; replaceable</text>

  <!-- crossbeam lashings -->
  <g stroke="#46d3c2" stroke-width="4">
    <line x1="340" y1="112" x2="340" y2="222"/>
    <line x1="460" y1="112" x2="460" y2="222"/>
  </g>
  <text x="580" y="168" font-size="14" fill="#5b7893">lashings: schema'd file contracts</text>
  <text x="580" y="188" font-size="14" fill="#5b7893">+ exit codes, never shared memory</text>

  <!-- outrigger float, top view: shorter, much slimmer, blunted noses -->
  <path d="M 250 229
           C 285 222, 320 220, 370 220
           L 420 220
           C 470 220, 505 222, 540 229
           Q 548 236, 540 243
           C 505 250, 470 252, 420 252
           L 370 252
           C 320 252, 285 250, 250 243
           Q 242 236, 250 229 Z"
        fill="#132a3e" stroke="#7ee2d4" stroke-width="3"/>
  <text x="395" y="286" font-size="20" fill="#f2f7fa" text-anchor="middle" font-weight="bold">outrigger</text>
  <text x="395" y="310" font-size="14" fill="#9fb3c8" text-anchor="middle">spec &#183; walls &#183; blind grading &#183; evidence ledger</text>

  <text x="595" y="230" font-size="14" fill="#5b7893">keeps it upright when</text>
  <text x="595" y="250" font-size="14" fill="#5b7893">no one is watching</text>

  <path d="M 40 336 q 30 -12 60 0 t 60 0 t 60 0 t 60 0 t 60 0 t 60 0 t 60 0 t 60 0 t 60 0 t 60 0 t 60 0 t 60 0 t 60 0 t 60 0" stroke="#1c3a52" stroke-width="3" fill="none"/>
</svg>
